<svg width="180" height="180" viewBox="0 0 180 180" fill="none" xmlns="http://www.w3.org/2000/svg">
<g clip-path="url(#clip0_3844_217)">
<rect width="180" height="180" rx="40" fill="black"/>
<rect x="11" y="24" width="159" height="133" fill="white"/>
<path d="M11.25 11.25H168.75C173.583 11.25 177.5 15.1675 177.5 20V160C177.5 164.833 173.583 168.75 168.75 168.75H11.25C6.41755 168.75 2.5 164.833 2.5 160V20C2.5 15.1675 6.41755 11.25 11.25 11.25ZM129.064 120.936L160 90L129.064 59.0641L116.69 71.4385L135.251 90L116.69 108.561L129.064 120.936ZM44.7488 90L63.3103 71.4385L50.9359 59.0641L20 90L50.9359 120.936L63.3103 108.561L44.7488 90ZM83.3876 133.75L115.235 46.25H96.6124L64.7647 133.75H83.3876Z" fill="black"/>
</g>
<defs>
<clipPath id="clip0_3844_217">
<rect width="180" height="180" rx="40" fill="white"/>
</clipPath>
</defs>
</svg>
